<svg id="" xmlns="http://www.w3.org/2000/svg" xml:space="preserve" width="16" height="16" viewBox="0 0 488 488">
    <path stroke="none"
        d="M487.9 40.927c-2.35 9.897-13.446 14.868-19.292 22.693-8.157 6.418-16.073 22.787-28.015 13.913-11.227-11.134 11.485-21.639 12.022-27.506H50.433v403.485c7.839-7.427 20.099-25.259 29.798-10.102 2.235 12.49-12.18 18.605-18.785 27.395-7.671 5.32-12.84 18.958-23.914 16.414-11.894-7.987-20.681-20.27-31.428-29.828-17.476-14.372 9.54-28.283 17.755-10.45 8.926 12.934 6.328-1.958 6.57-9.992V40.027c2.392-14.958 20.102-8.657 30.706-10.002h392.76C446.513 22.197 428.589 9.94 443.819.32c12.549-2.226 18.67 12.156 27.468 18.793 5.017 7.223 17.043 11.935 16.613 21.815z" />
</svg>