<svg xmlns="http://www.w3.org/2000/svg" xml:space="preserve" viewBox="-300 50 791.675 91.675"> <!-- width="800" height="800" -->
    <path
        d="M191.396 98.372c-1.382-7.715-8.775-12.856-16.517-11.491a1.344 1.344 0 0 0-1.092 1.566c.127.736.844 1.2 1.566 1.092 6.249-1.129 12.266 3.056 13.39 9.315a15.053 15.053 0 0 1-2.548 11.33c-1.424 1.988-3.301 3.485-5.415 4.503 4.804-3.938 5.584-11.031 1.703-15.909-3.228-4.05-9.145-4.726-13.189-1.495a7.738 7.738 0 0 0-2.884 5.207 7.73 7.73 0 0 0 1.65 5.722 6.423 6.423 0 0 0 4.351 2.415 6.419 6.419 0 0 0 4.777-1.376c.322-.253.459-.611.475-.997.232-.416.406-.869.406-1.387a2.88 2.88 0 1 0-5.759 0c0 .359.085.691.206 1.013-.923-.153-1.751-.601-2.336-1.35a4.978 4.978 0 0 1-1.076-3.729c.163-1.351.817-2.558 1.888-3.401 2.885-2.302 7.093-1.814 9.402 1.055 2.985 3.76 2.357 9.239-1.397 12.234-4.814 3.834-10.457 3.153-15.878-1.93-.232-.211-.532-.28-.817-.307-2.605-2.525-5.284-5.811-8.422-9.756-1.408-1.767-2.763-3.675-4.124-5.574.475.084.939.187 1.419.187 1.445 0 2.9-.393 4.319-1.191 3.602-2.025 4.888-6.621 2.863-10.238-1.688-3.014-5.532-4.101-8.559-2.399a5.224 5.224 0 0 0-2.505 3.193 5.269 5.269 0 0 0 .495 4.029c1.208 2.159 3.966 2.932 6.133 1.717.522-.293.676-.87.564-1.421.032-.098.121-.14.143-.237a1.776 1.776 0 0 0-1.498-2.009c-.938-.14-1.798.509-1.967 1.437a1.78 1.78 0 0 1-1.022-.809 2.612 2.612 0 0 1-.248-1.978 2.577 2.577 0 0 1 1.229-1.566c1.74-.96 3.924-.351 4.883 1.363 1.298 2.32.475 5.263-1.835 6.56-3.876 2.187-6.876-.313-8.475-2.246C139.03 80.51 131.41 72.4 118.105 72.4H118c-6.576.021-12.524 2.65-16.777 7.404-2.647 2.958-4.396 6.634-5.374 10.605-.965-3.977-2.721-7.646-5.374-10.605-4.248-4.754-10.204-7.383-16.777-7.404h-.103c-13.294 0-20.915 8.1-27.583 17.102-1.598 1.933-4.611 4.443-8.487 2.257-2.312-1.302-3.133-4.245-1.838-6.56a3.588 3.588 0 0 1 4.883-1.369 2.59 2.59 0 0 1 1.226 1.566c.187.67.103 1.371-.237 1.983-.235.408-.612.669-1.028.804-.177-.928-1.031-1.571-1.97-1.432a1.77 1.77 0 0 0-1.495 2.009c.016.103.113.145.14.237-.103.551.048 1.128.567 1.421 2.165 1.215 4.925.442 6.133-1.717a5.26 5.26 0 0 0 .488-4.034 5.288 5.288 0 0 0-2.5-3.193c-3.02-1.689-6.863-.614-8.562 2.405-2.025 3.612-.738 8.208 2.869 10.233 1.421.799 2.879 1.192 4.319 1.192.478 0 .947-.108 1.416-.188-1.36 1.906-2.71 3.812-4.121 5.579-3.133 3.939-5.814 7.23-8.43 9.756-.29.026-.577.096-.81.307-5.426 5.078-11.069 5.758-15.881 1.924-3.752-2.989-4.38-8.469-1.392-12.229 2.304-2.887 6.523-3.367 9.4-1.06a5.003 5.003 0 0 1 1.885 3.396 5.004 5.004 0 0 1-1.081 3.729c-.583.743-1.414 1.191-2.331 1.35.119-.321.203-.653.203-1.012a2.885 2.885 0 0 0-2.876-2.885 2.885 2.885 0 0 0-2.885 2.885c0 .511.174.97.406 1.387.016.379.155.743.475.996a6.412 6.412 0 0 0 4.777 1.371 6.399 6.399 0 0 0 4.343-2.404 7.706 7.706 0 0 0 1.648-5.727 7.674 7.674 0 0 0-2.884-5.203c-4.045-3.235-9.962-2.56-13.197 1.495-3.873 4.868-3.095 11.966 1.706 15.905-2.117-1.023-3.992-2.516-5.416-4.504a15.005 15.005 0 0 1-2.544-11.33c1.123-6.265 7.106-10.444 13.387-9.315.725.108 1.437-.355 1.566-1.092a1.352 1.352 0 0 0-1.091-1.566C9.078 85.498 1.663 90.64.276 98.36a17.742 17.742 0 0 0 3.006 13.379c2.684 3.755 6.631 6.196 11.119 6.887 11.211 1.693 17.869-6.607 25.531-16.263.042-.053.082-.116.124-.169h.005c1.653-1.83 5.023-4.509 8.928-1.909 2.207 1.466 2.813 4.462 1.361 6.655a3.587 3.587 0 0 1-4.968.996 2.594 2.594 0 0 1-.73-3.591c.298-.442.757-.675 1.247-.749.164.887.928 1.54 1.835 1.467.979-.096 1.698-.934 1.611-1.909-.011-.143-.14-.222-.19-.354.026-.464-.092-.923-.506-1.197a4.516 4.516 0 0 0-6.249 1.239 5.302 5.302 0 0 0 1.479 7.336 6.288 6.288 0 0 0 3.473 1.044 6.293 6.293 0 0 0 5.244-2.801c2.278-3.443 1.334-8.104-2.112-10.399-2.025-1.345-4.201-1.793-6.339-1.384.285-.398.578-.768.862-1.165a276.468 276.468 0 0 1 3.312-4.554c.031-.042.073-.074.108-.119.005-.01 0-.026.01-.037 6.21-8.316 13.305-15.681 25.162-15.681h.087c5.801.016 11.042 2.326 14.773 6.5 4.182 4.683 6.151 11.298 5.4 18.154a18.717 18.717 0 0 1-6.937 12.666c-3.641 2.922-8.121 4.298-12.744 4.071-2.781-.485-5.018-1.756-6.449-3.775-1.727-2.437-2.294-5.854-1.55-9.376a8.662 8.662 0 0 1 3.765-5.485 8.658 8.658 0 0 1 6.544-1.215 6.639 6.639 0 0 1 4.224 2.903 6.66 6.66 0 0 1 .928 5.041 5.005 5.005 0 0 1-2.175 3.186 4.998 4.998 0 0 1-3.842.711c-.896-.184-1.65-.722-2.202-1.449 1.35-.254 2.371-1.393 2.354-2.816a2.886 2.886 0 0 0-5.564-1.024c-.042.096-.14.132-.161.232-.05.222.01.443-.011.675 0 .074-.04.121-.04.2 0 .059.029.101.034.143-.071 1.35.167 2.695.917 3.855a6.447 6.447 0 0 0 4.108 2.82 7.766 7.766 0 0 0 5.877-1.097 7.686 7.686 0 0 0 3.341-4.894 9.292 9.292 0 0 0-1.311-7.066 9.311 9.311 0 0 0-5.93-4.065 11.308 11.308 0 0 0-8.575 1.592 11.288 11.288 0 0 0-4.936 7.182c-.746 3.523-.324 6.951 1.047 9.771-.517-.479-1.042-.959-1.49-1.523a14.735 14.735 0 0 1-3.18-10.895c.691-6.355 6.426-10.945 12.786-10.275.751.063 1.411-.454 1.487-1.2a1.346 1.346 0 0 0-1.199-1.484c-7.815-.814-14.905 4.838-15.763 12.664-.52 4.662.815 9.229 3.747 12.883a17.42 17.42 0 0 0 11.773 6.45c.469.047.933.053 1.397.073.077.011.14.037.221.048.061.005.113.01.174.01.032 0 .053-.025.084-.031.168 0 .335.026.509.026 4.891 0 9.6-1.65 13.474-4.757 3.591-2.885 6.046-6.76 7.229-11.116 1.189 4.351 3.639 8.227 7.228 11.116 3.871 3.111 8.58 4.757 13.474 4.757.163 0 .332-.021.506-.026.037 0 .059.031.09.031.063 0 .116 0 .174-.01.074-.011.138-.037.222-.048.464-.021.929-.026 1.393-.073a17.522 17.522 0 0 0 11.775-6.45c2.932-3.654 4.271-8.221 3.755-12.883-.85-7.826-7.91-13.523-15.757-12.664a1.36 1.36 0 0 0-1.203 1.484c.085.746.781 1.269 1.487 1.2 6.35-.675 12.087 3.926 12.783 10.275a14.71 14.71 0 0 1-3.18 10.895c-.448.564-.976 1.039-1.487 1.523 1.365-2.82 1.793-6.248 1.044-9.761a11.3 11.3 0 0 0-4.936-7.188 11.3 11.3 0 0 0-8.575-1.593 9.347 9.347 0 0 0-5.933 4.066 9.314 9.314 0 0 0-1.308 7.061 7.692 7.692 0 0 0 3.344 4.904 7.77 7.77 0 0 0 5.869 1.092 6.49 6.49 0 0 0 4.113-2.826c.754-1.155.991-2.5.917-3.85 0-.048.037-.096.037-.148 0-.068-.037-.121-.042-.2-.021-.222.042-.442-.011-.675-.021-.101-.116-.132-.158-.222-.422-1.044-1.439-1.804-2.637-1.813a2.873 2.873 0 0 0-2.927 2.831c-.016 1.419 1.013 2.558 2.357 2.821-.554.723-1.303 1.245-2.199 1.445a5.002 5.002 0 0 1-3.834-.712 5.01 5.01 0 0 1-2.183-3.196 6.672 6.672 0 0 1 .928-5.035 6.631 6.631 0 0 1 4.225-2.903 8.572 8.572 0 0 1 6.544 1.215 8.652 8.652 0 0 1 3.766 5.485c.743 3.522.179 6.939-1.551 9.376-1.439 2.024-3.681 3.29-6.46 3.765-4.609.243-9.107-1.139-12.735-4.061a18.68 18.68 0 0 1-6.938-12.666c-.751-6.856 1.219-13.472 5.403-18.149 3.723-4.174 8.975-6.484 14.771-6.5h.09c11.85 0 18.947 7.37 25.159 15.681.006.011 0 .026.011.037.037.044.079.076.11.113a259.501 259.501 0 0 1 3.312 4.554c.284.397.574.767.859 1.165-2.136-.409-4.319.04-6.339 1.39-3.449 2.289-4.388 6.961-2.114 10.399a6.293 6.293 0 0 0 5.241 2.795 6.306 6.306 0 0 0 3.48-1.044c2.426-1.625 3.091-4.91 1.477-7.336a4.511 4.511 0 0 0-6.249-1.239c-.411.274-.538.733-.506 1.197-.048.132-.174.216-.19.354a1.758 1.758 0 0 0 1.614 1.909c.907.073 1.672-.58 1.83-1.467.49.074.954.301 1.249.744a2.594 2.594 0 0 1-.732 3.591c-1.646 1.087-3.876.644-4.968-.991-1.461-2.204-.849-5.194 1.355-6.655 3.913-2.61 7.277.079 8.928 1.909h.005c.043.063.079.116.122.169 7.656 9.65 14.291 17.956 25.533 16.258 4.488-.686 8.433-3.127 11.117-6.882a17.554 17.554 0 0 0 3.031-13.364z" />
</svg>