<svg xmlns="http://www.w3.org/2000/svg" version="1.0" viewBox="175 0 670 112"><path d="M12 20.5V24h1048v-7H12v3.5zM74 34.6C67.3 37 60.7 42.5 53.1 52 39.7 68.7 30.5 75 18.2 75.8c-5.3.4-6.2.7-6.2 2.3C12 80 23.3 80 530.1 80c492.5 0 518-.1 517.7-1.7-.2-1.4-1.8-2-6.1-2.5-7.3-.9-11.1-3.1-14.8-8.7-5.8-8.7-3.1-19 6.4-24.5 5.5-3.2 9.9-4 14.1-2.6 4.2 1.3 6.4 3.7 7.2 7.7.6 3.2-1.4 6.3-4.2 6.3-2.3 0-5.3-3.7-4.7-5.8.7-2.7-2.7-3.9-4.5-1.5-1.7 2.3-.8 7.1 1.7 9.7 1 1 3.9 2 6.4 2.3 3.9.5 4.9.2 7.1-2 10.2-10.2-3.2-26.7-18.5-22.7-9.2 2.4-12.9 5.6-28.4 24-11.4 13.6-20 18-34.9 18-10.2 0-14.7-1.3-18.6-5.1-9.1-9.2-8.2-20.6 2.3-27.8 5.3-3.6 11.3-4.7 15.8-2.8 4.2 1.7 5.7 3.5 6.5 7.4.6 3.2-1.4 6.3-4.2 6.3-2.3 0-5.3-3.7-4.7-5.8.7-2.7-2.7-3.9-4.5-1.5-1.6 2.2-.9 6.9 1.4 9.5 2 2.1 7.3 3.3 10.9 2.4 3.8-1 6.7-6.2 6.2-11.3-.8-8.2-7.6-13.6-17.2-13.6-10 0-16.4 4.6-32.8 24-8.4 10-14.4 14.6-22.1 16.8-5.7 1.7-19.4 2-24.8.5-6.8-1.9-12.9-9.9-13-17-.2-16.7 26.7-26 30.7-10.5.8 3.2.6 3.9-1 5.1-1 .8-2.5 1.4-3.2 1.4-2.2 0-5.2-3.7-4.6-5.8.7-2.7-2.7-3.9-4.5-1.5-1.7 2.3-.8 7.1 1.7 9.7 1 1 3.9 2 6.4 2.3 3.9.5 4.9.2 7.1-2 7.5-7.5 2.4-19.9-9.3-22.7-4.2-1-5.9-.9-10.4.4-7.4 2.2-12.5 6.3-23.7 19.7-15.5 18.4-23.2 22.4-41 21.7-11.2-.4-14.8-2.2-19.5-9.3-2.2-3.4-2.6-4.9-2.3-9.5.5-6.6 3.3-11.1 9.3-14.5 5.4-3.1 9.8-3.9 14-2.5 6.8 2.3 10.2 10.8 5.1 13.1-4 1.9-7.1-.6-6.7-5.2.1-.9-.8-1.9-1.9-2.2-3.1-.8-4.4 3.3-2.5 7.9 2.4 5.7 10.6 7.4 15 3 7.5-7.5 2.1-20-9.7-22.6-4.7-1.1-6-1-11 .8-7.9 2.8-11.6 5.9-22.5 18.9-16 19.1-22.7 22.7-40.4 22.1-9.2-.3-11-.6-14.1-2.7-8.2-5.6-11-15.4-6.7-23 4.3-7.7 14.4-12.4 21.4-10.1 6.9 2.3 10.2 10.8 5.1 13.1-2.6 1.2-6.5-.2-6.7-2.4-.1-.7-.2-2.1-.3-3.2-.2-3-3.4-3.1-4.7-.2-1.8 4 1.5 9.9 6.2 11.1 5.1 1.3 8.6.1 10.9-3.7 2.7-4.4 2.5-9.4-.5-14-6.3-9.2-19.6-9.7-30.7-1.3-2.5 2-8.5 8.3-13.3 14.1-15.5 18.8-22.9 22.9-40.6 22.3-9.2-.3-11-.6-14.1-2.7-8.1-5.6-11-15.4-6.7-23 4.2-7.5 14.4-12.4 21.3-10.1 6.9 2.3 10.4 10.8 5.2 13.1-2.6 1.2-6.5-.2-6.7-2.4-.1-.7-.2-2.1-.3-3.2-.2-3.1-3.4-3.1-4.6.1-1.6 4.2 1.5 9.6 6.1 10.8 5.1 1.3 8.6.1 10.9-3.7 6-9.7-2.4-21.2-15.5-21.1-9.9 0-17.2 5.3-31.5 22.8C628.8 71.3 620.3 76 605.2 76c-11.2 0-14.9-1.1-19.4-5.7-4.2-4.4-5.8-7.9-5.8-13.1 0-10.2 13.4-20.2 23.2-17.3 7 2.1 10.6 10.9 5.4 13.2-3.4 1.6-6.6-.3-6.6-4 0-1.7-.6-3.1-1.6-3.5-2.3-.9-2.4-.8-3.4 1.9-1.4 3.6 1.1 9.2 4.5 10.5 7.4 2.8 13.4-.6 14.2-8.2 1.2-10.7-9.8-18.6-21.8-15.8-7.5 1.8-13.3 6.4-23.4 18.5-15.1 18.2-21.8 22.5-36.2 23.3-12.3.7-16.7-.3-21.5-4.6-6.5-5.9-8.6-13.8-5.4-20.1 3.7-7.1 14.9-13.3 21.2-11.7 7 1.8 11.2 11.3 6 13.7-3.4 1.6-6.4-.3-6.8-4.4-.2-2.4-.8-3.2-2.2-3.2-4.4 0-3.3 9.8 1.4 12.2 3.9 2 8.6 1.6 11.6-1 3.9-3.4 4.5-10.9 1.2-15.6-3.4-5.1-8-7.4-14.7-7.5-10.5-.1-14.7 2.9-34.4 25.4-6.7 7.7-9.6 10.2-15.2 13-6.7 3.4-7 3.5-19.1 3.5-10.8 0-12.6-.2-15-2.1-9.1-6.7-11.9-16.4-6.9-23.9 4.4-6.7 14.1-11.6 20-10.1 7.1 1.8 11.4 11.3 6.1 13.7-3.4 1.6-6.4-.3-6.8-4.4-.2-2.4-.8-3.2-2.3-3.2-1.6 0-2.1.8-2.3 4.1-.4 5.6 2 8.4 7.9 9.1 6.4.7 10-2.4 10.6-9.3.7-8.2-4.8-14.4-14.1-15.8-9.8-1.5-18.8 4-30.9 18.6-10.4 12.8-15.4 17.3-22.6 20.7-5.1 2.4-6.7 2.6-17.8 2.6-10.7 0-12.5-.2-14.9-2.1-9.1-6.7-11.9-16.4-6.9-23.9 4.4-6.7 14.1-11.6 20-10.1 7.1 1.8 11.4 11.3 6.1 13.7-3.4 1.6-6.4-.3-6.8-4.4-.2-2.4-.8-3.2-2.2-3.2-4.4 0-3.3 9.8 1.4 12.2 7 3.5 13.8-.1 14.7-7.8 1.2-10.9-9.1-18.7-21.4-16-7.3 1.7-14.7 7.4-23.6 18.4-15 18.5-21.9 22.8-37.5 23.5-12 .6-17.1-.8-21.7-6-8-8.8-7.5-17.4 1.5-25.1 4.6-3.9 11.6-6.3 15.6-5.3 7 1.8 11.2 11.3 6 13.7-3.4 1.6-6.4-.3-6.8-4.4-.2-2.4-.8-3.2-2.3-3.2-1.6 0-2.1.8-2.3 4.1-.4 5.7 2 8.4 8 9.1 4.2.5 5 .3 7.8-2.5 2.4-2.5 3-3.9 3-7.4 0-11-11.3-18-23.3-14.4-6.7 2-13.6 7.6-21.7 17.7-14.9 18.4-22.4 23.1-37.9 23.7-5.5.3-11.2-.1-13.5-.8-10.2-3-16.5-15.5-12.1-23.9 3.6-7.1 14.7-13.1 21.4-11.6 6.7 1.5 10.9 11.3 5.7 13.6-3.5 1.6-6.6-.3-6.6-4.2 0-3.3-2.6-5.1-4.1-2.8-1 1.6-1.2 6-.3 8.4.4.8 1.9 2.2 3.5 3 7.4 3.9 14.9-.6 14.9-8.7 0-10.6-10.7-17.8-22.1-14.8-7 1.8-14.5 7.6-22.4 17.4-15.3 19-22.8 23.8-38.4 24.4-14.5.6-20.6-2.1-25.2-11-3.4-6.7-2.2-12.8 3.8-19 4.3-4.4 11.9-7.3 16.7-6.4 5.2 1 10 7.3 8.5 11.3-1.8 4.9-8.9 3.5-8.9-1.8 0-3.3-2.6-5.1-4.1-2.8-1.5 2.3-1 7.5.9 9.9 1.2 1.5 3.3 2.4 6.3 2.7 6.4.7 10-2.4 10.6-9.3.7-7.9-3.9-13.5-12.7-15.5-9.9-2.2-19.9 3.4-31.4 17.5-15.6 19.2-22.9 23.8-38.5 24.4-10.7.5-15.6-.6-20.1-4.5-6.2-5.2-8.4-12.9-5.6-19.6 3-7.3 14.5-13.8 21.5-12.2 6.7 1.5 10.9 11.3 5.7 13.6-3.4 1.6-6.6-.3-6.6-4.1 0-1.6-.5-3.2-1-3.5-1.8-1.1-4 1.6-4 5 0 4.9 2.7 7.6 8.2 8.2 4.2.5 5 .3 7.8-2.5 2.4-2.5 3-3.9 3-7.5 0-11.1-12.3-18.3-24-14.1zM12 92v3h1048v-6H12v3z"/></svg>