<?xml version="1.0" standalone="no"?>
<!DOCTYPE svg PUBLIC "-//W3C//DTD SVG 20010904//EN"
 "http://www.w3.org/TR/2001/REC-SVG-20010904/DTD/svg10.dtd">
<svg version="1.0" xmlns="http://www.w3.org/2000/svg"
 width="1588.000000pt" height="1191.000000pt" viewBox="0 0 1588.000000 1191.000000"
 preserveAspectRatio="xMidYMid meet">

<g transform="translate(0.000000,1191.000000) scale(0.100000,-0.100000)"
fill="#000000" stroke="none">
<path d="M5160 9896 c-196 -81 -408 -206 -559 -329 -138 -113 -266 -306 -308
-467 -21 -81 -25 -302 -5 -322 7 -7 32 -11 60 -10 131 5 328 86 450 183 81 65
182 192 232 294 77 155 219 641 194 665 -5 5 -33 -1 -64 -14z"/>
<path d="M10660 9873 c0 -99 76 -374 151 -547 79 -183 205 -341 343 -431 105
-68 287 -125 400 -125 41 0 46 3 52 26 11 41 -4 211 -26 300 -71 299 -286 519
-715 732 -215 107 -205 105 -205 45z"/>
<path d="M3773 9493 c-127 -260 -181 -437 -198 -648 -8 -96 8 -245 36 -327 27
-82 92 -195 163 -284 l60 -76 63 69 c183 198 244 344 245 583 0 219 -56 427
-192 708 -43 89 -80 162 -83 162 -2 0 -44 -84 -94 -187z"/>
<path d="M11993 9653 c-6 -16 -39 -88 -73 -161 -250 -540 -251 -870 -4 -1192
23 -30 61 -73 84 -95 l42 -40 54 59 c62 68 140 213 179 336 22 66 29 111 32
200 8 197 -42 385 -179 675 -44 94 -87 187 -96 207 -10 21 -19 38 -22 38 -3 0
-11 -12 -17 -27z"/>
<path d="M4865 8781 c-206 -80 -344 -147 -467 -230 -119 -80 -247 -203 -297
-285 -46 -76 -97 -229 -118 -353 -24 -138 -25 -137 127 -130 303 14 544 175
717 481 77 134 179 387 206 509 14 62 14 67 -1 66 -10 0 -84 -27 -167 -58z"/>
<path d="M10845 8786 c31 -131 112 -342 191 -496 170 -331 443 -509 782 -510
l94 0 -6 53 c-25 203 -61 316 -138 435 -100 152 -277 298 -488 399 -99 48
-415 173 -435 173 -10 0 -9 -13 0 -54z"/>
<path d="M3231 8438 c-64 -195 -102 -428 -103 -633 -1 -219 28 -340 113 -470
58 -89 203 -243 254 -271 l36 -19 30 35 c43 52 125 217 138 278 17 80 14 366
-4 435 -8 31 -38 103 -66 159 -101 201 -335 548 -370 548 -4 0 -17 -28 -28
-62z"/>
<path d="M12568 8442 c-23 -27 -77 -98 -119 -158 -153 -218 -242 -401 -275
-560 -22 -107 -15 -281 16 -379 26 -84 98 -227 139 -275 l29 -35 43 31 c56 40
194 195 238 268 82 136 111 260 111 473 0 156 -17 299 -50 442 -41 174 -62
241 -75 241 -7 0 -33 -22 -57 -48z"/>
<path d="M4350 7703 c-291 -192 -550 -465 -617 -651 -48 -130 -69 -377 -42
-492 21 -91 52 -97 188 -34 147 68 300 188 386 304 64 85 124 242 149 390 23
136 47 399 44 479 l-3 73 -105 -69z"/>
<path d="M11420 7658 c0 -262 62 -584 143 -744 48 -95 154 -212 263 -290 86
-61 225 -126 285 -132 49 -5 49 -4 65 33 40 96 36 311 -8 454 -23 76 -74 182
-124 256 -97 146 -377 394 -576 509 l-48 28 0 -114z"/>
<path d="M2797 7254 c-3 -3 -3 -22 -1 -42 3 -20 11 -97 19 -170 47 -423 156
-690 361 -881 86 -81 219 -153 317 -173 72 -15 86 -8 110 58 28 77 18 308 -18
429 -44 149 -113 261 -241 389 -66 65 -244 205 -329 258 -22 14 -79 50 -126
81 -48 31 -89 54 -92 51z"/>
<path d="M12910 7152 c-397 -260 -553 -436 -626 -702 -22 -80 -23 -336 -2
-415 l13 -50 55 1 c99 2 260 84 368 187 172 164 280 415 332 764 19 130 36
323 29 323 -2 0 -78 -49 -169 -108z"/>
<path d="M4314 6677 c-91 -95 -247 -292 -302 -382 -73 -119 -144 -329 -157
-463 -10 -102 29 -300 85 -429 28 -66 46 -68 128 -13 197 132 342 317 387 495
30 119 40 284 26 465 -16 229 -48 420 -70 420 -5 0 -49 -42 -97 -93z"/>
<path d="M11451 6733 c-29 -113 -61 -390 -61 -538 0 -194 45 -384 121 -510 70
-118 244 -275 356 -321 46 -20 49 -15 94 100 43 112 59 194 59 314 0 252 -81
445 -308 732 -78 98 -229 260 -243 260 -5 0 -13 -17 -18 -37z"/>
<path d="M2660 6034 c0 -20 137 -268 201 -364 154 -229 300 -369 484 -460 112
-56 187 -70 383 -70 157 0 163 14 88 231 -44 131 -85 197 -181 295 -188 191
-436 298 -818 355 -144 21 -157 22 -157 13z"/>
<path d="M13075 6024 c-399 -61 -726 -208 -868 -390 -87 -110 -176 -315 -193
-443 l-7 -53 169 5 c192 5 256 18 379 77 214 102 395 306 584 655 91 170 90
165 55 164 -16 -1 -69 -7 -119 -15z"/>
<path d="M4548 5643 c-100 -135 -228 -345 -271 -445 -65 -151 -89 -250 -94
-383 -7 -157 16 -256 92 -410 30 -60 61 -119 69 -129 15 -18 16 -18 43 -1 57
38 216 202 263 272 87 130 119 253 120 463 0 125 -23 318 -54 455 -24 102 -75
263 -86 270 -5 3 -42 -38 -82 -92z"/>
<path d="M11236 5712 c-3 -5 -21 -64 -40 -133 -100 -356 -119 -635 -60 -869
22 -89 74 -196 118 -247 42 -48 237 -183 265 -183 22 0 49 37 95 127 102 203
111 438 26 688 -53 158 -176 375 -307 543 -59 76 -84 95 -97 74z"/>
<path d="M2856 5071 c-15 -24 227 -332 369 -470 171 -166 333 -257 504 -282
109 -15 313 -8 365 15 38 16 39 16 34 64 -5 52 -76 211 -127 285 -145 211
-415 350 -753 386 -117 13 -385 14 -392 2z"/>
<path d="M12640 5069 c-190 -22 -379 -78 -506 -150 -149 -84 -276 -234 -353
-414 -39 -93 -46 -135 -27 -160 13 -18 28 -20 188 -23 249 -5 348 16 513 112
125 73 402 367 527 560 21 33 38 65 38 73 0 10 -31 13 -152 12 -84 -1 -187 -5
-228 -10z"/>
<path d="M5061 5044 c-56 -71 -164 -337 -214 -524 -28 -105 -30 -130 -31 -280
-1 -186 9 -242 70 -369 59 -126 170 -261 214 -261 52 0 216 254 255 396 42
153 27 405 -34 586 -69 204 -202 478 -231 478 -5 0 -18 -12 -29 -26z"/>
<path d="M10756 5032 c-80 -128 -209 -444 -231 -566 -19 -113 -20 -366 -1
-457 18 -84 68 -183 144 -284 80 -108 104 -130 130 -116 37 20 160 178 200
256 53 105 76 280 61 464 -16 207 -56 342 -170 581 -58 120 -83 160 -100 160
-5 0 -20 -17 -33 -38z"/>
<path d="M10155 4373 c-267 -280 -402 -471 -441 -623 -14 -54 -15 -98 -11
-265 6 -225 15 -275 60 -343 42 -62 65 -64 142 -14 259 168 386 385 415 707
17 197 -10 629 -41 660 -2 2 -58 -53 -124 -122z"/>
<path d="M5582 4443 c-7 -27 -17 -118 -24 -203 -13 -175 1 -476 28 -589 17
-74 77 -208 125 -278 101 -148 312 -304 369 -273 45 24 93 168 110 335 25 231
-34 413 -211 648 -73 97 -361 407 -378 407 -4 0 -13 -21 -19 -47z"/>
<path d="M3749 4180 c-250 -19 -329 -36 -329 -67 0 -21 121 -143 250 -253 244
-208 506 -325 725 -323 147 1 415 80 415 122 0 10 -24 58 -52 107 -129 218
-328 353 -590 398 -111 19 -290 26 -419 16z"/>
<path d="M11860 4184 c-318 -37 -484 -109 -637 -279 -67 -74 -153 -211 -153
-244 0 -24 18 -35 114 -67 367 -126 675 -35 1086 322 116 100 190 178 190 199
0 8 -12 20 -26 25 -62 24 -476 55 -574 44z"/>
<path d="M6326 3732 c-13 -22 53 -185 136 -337 121 -220 245 -372 379 -468 82
-58 236 -131 307 -146 67 -14 257 -14 283 -1 27 15 25 71 -6 193 -98 384 -356
586 -935 731 -156 40 -157 40 -164 28z"/>
<path d="M9380 3705 c-479 -129 -730 -290 -860 -551 -41 -82 -82 -224 -95
-326 l-6 -58 114 0 c194 0 330 37 470 130 140 92 237 200 354 395 101 167 203
384 203 430 0 22 -39 18 -180 -20z"/>
<path d="M4690 3450 c-87 -10 -181 -35 -318 -82 -128 -44 -202 -76 -202 -89 0
-20 250 -178 411 -259 104 -53 292 -116 389 -131 155 -24 335 9 515 95 97 47
135 76 135 105 0 37 -108 156 -214 236 -73 54 -180 105 -255 121 -71 15 -346
17 -461 4z"/>
<path d="M10750 3453 c-51 -8 -146 -47 -213 -87 -81 -48 -247 -200 -270 -247
-20 -42 -15 -52 41 -88 183 -117 393 -174 550 -151 211 32 455 131 683 277
104 66 175 120 168 127 -40 36 -362 142 -487 161 -89 14 -404 19 -472 8z"/>
<path d="M5825 2931 c-96 -23 -154 -45 -276 -107 -174 -87 -454 -273 -446
-297 9 -27 344 -125 522 -152 182 -27 367 -14 525 36 115 37 181 82 345 236
l96 91 -78 49 c-187 120 -288 154 -473 159 -107 3 -152 0 -215 -15z"/>
<path d="M9715 2940 c-70 -10 -142 -36 -243 -90 -101 -55 -142 -88 -142 -115
0 -62 171 -215 328 -294 112 -56 214 -75 407 -76 185 0 235 8 468 71 130 36
247 80 247 94 0 22 -283 209 -451 299 -126 67 -223 98 -348 110 -115 12 -177
12 -266 1z"/>
<path d="M7847 2730 c-58 -37 -107 -102 -107 -145 0 -134 112 -225 244 -198
71 15 101 35 126 87 36 75 18 189 -36 238 -62 55 -157 63 -227 18z"/>
<path d="M6905 2574 c-161 -36 -333 -126 -535 -279 -114 -86 -220 -184 -220
-203 0 -13 65 -34 205 -64 90 -20 129 -22 390 -23 321 0 362 6 476 67 116 61
340 268 356 327 13 49 -97 113 -274 162 -105 28 -300 35 -398 13z"/>
<path d="M8580 2569 c-49 -9 -231 -94 -268 -125 l-23 -19 29 -46 c91 -143 204
-239 367 -312 114 -51 183 -67 320 -74 227 -11 725 56 725 97 0 32 -169 173
-359 300 -113 75 -296 164 -369 179 -62 13 -356 13 -422 0z"/>
</g>
</svg>
