<svg xmlns="http://www.w3.org/2000/svg" id="svg-scrambled-true" viewBox="0 0 49.701 43.928">
    <path
        d="M27 10.964h9v8.964l13.7-9.964L36 0v8.964h-9c-7.168 0-13 5.832-13 13 0 6.065-4.935 11-11 11H1a1 1 0 1 0 0 2h2c7.168 0 13-5.832 13-13 0-6.065 4.935-11 11-11zm11-7.036 8.3 6.036L38 16ZM1 10.964h2c2.713 0 5.318.994 7.336 2.799a.998.998 0 0 0 1.412-.078 1 1 0 0 0-.078-1.412A12.983 12.983 0 0 0 3 8.964H1a1 1 0 1 0 0 2zM36 32.964h-9a10.99 10.99 0 0 1-7.278-2.748 1 1 0 1 0-1.322 1.5 12.988 12.988 0 0 0 8.601 3.248h9v8.964l13.7-9.964L36 24Zm2-5.036 8.3 6.036L38 40z" />
</svg>