<?xml version="1.0" standalone="no"?>
<!DOCTYPE svg PUBLIC "-//W3C//DTD SVG 20010904//EN"
 "http://www.w3.org/TR/2001/REC-SVG-20010904/DTD/svg10.dtd">
<svg version="1.0" xmlns="http://www.w3.org/2000/svg"
 width="850.000000pt" height="850.000000pt" viewBox="0 0 850.000000 850.000000"
 preserveAspectRatio="xMidYMid meet">
<metadata>
Created by potrace 1.14, written by Peter Selinger 2001-2017
</metadata>
<g transform="translate(0.000000,850.000000) scale(0.100000,-0.100000)"
fill="#000000" stroke="none">
<path d="M0 7745 l0 -755 760 0 760 0 0 755 0 755 -760 0 -760 0 0 -755z"/>
<path d="M1700 8355 l0 -145 1220 0 1220 0 0 145 0 145 -1220 0 -1220 0 0
-145z"/>
<path d="M6940 8355 l0 -145 610 0 610 0 0 145 0 145 -610 0 -610 0 0 -145z"/>
<path d="M6100 7711 c-116 -61 -115 -237 3 -297 39 -21 115 -21 154 -1 156 81
99 317 -77 317 -25 0 -61 -8 -80 -19z"/>
<path d="M8160 5590 l0 -1220 170 0 170 0 0 1220 0 1220 -170 0 -170 0 0
-1220z"/>
<path d="M2410 6181 c0 -30 -40 -70 -84 -85 l-40 -14 30 -6 c38 -8 77 6 98 36
18 25 22 88 6 88 -5 0 -10 -9 -10 -19z"/>
<path d="M3630 6181 c0 -30 -40 -70 -84 -85 l-40 -14 30 -6 c38 -8 77 6 98 36
18 25 22 88 6 88 -5 0 -10 -9 -10 -19z"/>
<path d="M6251 6179 c-2 -25 -40 -69 -69 -80 -33 -13 -21 -23 18 -14 38 8 63
44 57 82 -2 15 -5 21 -6 12z"/>
<path d="M4320 4980 l0 -610 610 0 610 0 0 610 0 610 -610 0 -610 0 0 -610z"/>
<path d="M2410 4961 c0 -30 -40 -70 -84 -85 l-40 -14 30 -6 c38 -8 77 6 98 36
18 25 22 88 6 88 -5 0 -10 -9 -10 -19z"/>
<path d="M2920 3580 l0 -610 610 0 610 0 0 610 0 610 -610 0 -610 0 0 -610z"/>
<path d="M6940 3580 l0 -610 610 0 610 0 0 -610 0 -610 170 0 170 0 0 610 0
610 -170 0 -170 0 0 610 0 610 -610 0 -610 0 0 -610z"/>
<path d="M0 960 l0 -610 150 0 150 0 0 -175 0 -175 610 0 610 0 0 785 0 785
-760 0 -760 0 0 -610z"/>
<path d="M5031 939 c-2 -25 -40 -69 -69 -80 -33 -13 -21 -23 18 -14 38 8 63
44 57 82 -2 15 -5 21 -6 12z"/>
</g>
</svg>
